<?xml version="1.0" encoding="utf-8"?>
<!-- Generator: Adobe Illustrator 16.0.0, SVG Export Plug-In . SVG Version: 6.00 Build 0)  -->
<!DOCTYPE svg PUBLIC "-//W3C//DTD SVG 1.1//EN" "http://www.w3.org/Graphics/SVG/1.1/DTD/svg11.dtd">
<svg version="1.1" id="Calque_2" xmlns="http://www.w3.org/2000/svg" xmlns:xlink="http://www.w3.org/1999/xlink" x="0px" y="0px"
	 width="83px" height="83px" viewBox="0 0 83 83" enable-background="new 0 0 83 83" xml:space="preserve">
<path fill="#282D33" stroke="#282D33" stroke-width="0.25" d="M10.287,25.393c0.51,1.126,1.154,2.192,1.912,3.172l2.628-2.037
	c-0.6-0.773-1.109-1.618-1.513-2.508L10.287,25.393z"/>
<path fill="#282D33" stroke="#282D33" stroke-width="0.25" d="M13.735,12.686L10.82,11.09c-0.595,1.085-1.062,2.24-1.389,3.434
	l3.206,0.878C12.896,14.458,13.266,13.544,13.735,12.686z"/>
<path fill="#282D33" stroke="#282D33" stroke-width="0.25" d="M16.879,28.623l-2.092,2.584c0.954,0.772,1.994,1.432,3.096,1.965
	c0.154-1.166,0.372-2.312,0.661-3.43C17.965,29.408,17.401,29.045,16.879,28.623z"/>
<path fill="#282D33" stroke="#282D33" stroke-width="0.25" d="M33.818,27.733c-0.226,0.226-0.459,0.442-0.699,0.649l2.173,2.516
	c0.298-0.258,0.589-0.528,0.874-0.813c0.592-0.592,1.142-1.232,1.631-1.903l-2.687-1.959C34.724,26.756,34.289,27.264,33.818,27.733
	z"/>
<path fill="#282D33" stroke="#282D33" stroke-width="0.25" d="M36.549,23.67l3.066,1.283c0.477-1.141,0.821-2.339,1.021-3.561
	l-3.28-0.539C37.199,21.82,36.927,22.768,36.549,23.67z"/>
<path fill="#282D33" stroke="#282D33" stroke-width="0.25" d="M36.967,15.039c0.287,0.934,0.467,1.904,0.532,2.884l3.316-0.223
	c-0.083-1.236-0.309-2.461-0.672-3.64L36.967,15.039z"/>
<path fill="#282D33" stroke="#282D33" stroke-width="0.25" d="M36.168,7.465c-0.879-0.879-1.856-1.653-2.904-2.3l-1.745,2.829
	c0.828,0.512,1.601,1.123,2.298,1.82L36.168,7.465z"/>
<path fill="#282D33" stroke="#282D33" stroke-width="0.25" d="M29.91,3.599c-1.17-0.388-2.389-0.64-3.623-0.751l-0.294,3.312
	c0.979,0.088,1.944,0.287,2.872,0.595L29.91,3.599z"/>
<path fill="#282D33" stroke="#282D33" stroke-width="0.25" d="M24.859,31.444c-0.919,0-1.838-0.1-2.732-0.295l-0.713,3.246
	c1.128,0.247,2.287,0.373,3.445,0.373l0.231-0.001l-0.039-3.324L24.859,31.444z"/>
<path fill="#282D33" stroke="#282D33" stroke-width="0.25" d="M12.422,21.229c-0.158-0.81-0.239-1.635-0.239-2.456
	c0-0.157,0.002-0.314,0.009-0.471L8.87,18.18c-0.008,0.197-0.011,0.396-0.011,0.593c0,1.034,0.102,2.076,0.3,3.094L12.422,21.229z"
	/>
<path fill="#282D33" stroke="#282D33" stroke-width="0.25" d="M23.058,6.236l-0.468-3.292c-1.226,0.175-2.429,0.491-3.579,0.941
	l1.21,3.095C21.131,6.624,22.086,6.374,23.058,6.236z"/>
<path fill="#282D33" stroke="#282D33" stroke-width="0.25" d="M27.956,31.063l0.807,3.225c1.203-0.301,2.369-0.742,3.463-1.312
	l-1.532-2.95C29.829,30.476,28.907,30.824,27.956,31.063z"/>
<path fill="#282D33" stroke="#282D33" stroke-width="0.25" d="M15.89,9.816c0.539-0.537,1.126-1.027,1.747-1.458l-1.895-2.731
	c-0.782,0.542-1.522,1.16-2.201,1.838c-0.199,0.198-0.391,0.4-0.577,0.607l2.472,2.223C15.583,10.131,15.734,9.972,15.89,9.816z"/>
<path fill="#282D33" stroke="#282D33" stroke-width="0.25" d="M21.422,22.206c-1.889-1.893-1.889-4.97,0-6.859
	c0.917-0.916,2.136-1.421,3.434-1.421c1.103,0,2.147,0.368,2.999,1.04c0.862-0.73,1.765-1.412,2.709-2.038
	c-1.537-1.499-3.557-2.326-5.708-2.326c-2.184,0-4.236,0.85-5.784,2.393c-3.185,3.187-3.187,8.373,0,11.563
	c0.31,0.309,0.645,0.582,0.992,0.834c0.458-1.038,0.974-2.044,1.545-3.015C21.547,22.319,21.482,22.267,21.422,22.206z"/>
<path fill="#282D33" stroke="#282D33" stroke-width="0.25" d="M29.708,18.776c0,1.296-0.504,2.514-1.421,3.43
	c-0.916,0.916-2.134,1.421-3.43,1.421c-0.041,0-0.082-0.005-0.122-0.006c-0.618,1.001-1.166,2.049-1.642,3.134
	c0.574,0.126,1.163,0.196,1.764,0.196l0,0c2.184,0,4.237-0.851,5.78-2.394c1.545-1.543,2.396-3.597,2.396-5.781
	c0-1.079-0.209-2.127-0.606-3.097c-0.987,0.653-1.924,1.375-2.809,2.154C29.678,18.142,29.708,18.457,29.708,18.776z"/>
<path fill="#282D33" stroke="#282D33" stroke-width="0.25" d="M46.491,8.119c-3.012,0-5.917,0.465-8.647,1.325
	c0.286,0.398,0.56,0.807,0.809,1.229l-2.867,1.683c-0.344-0.586-0.755-1.134-1.191-1.661c-1.407,0.64-2.754,1.385-4.03,2.232
	c0.023,0.022,0.049,0.043,0.073,0.066c0.781,0.781,1.383,1.692,1.79,2.686c4.037-2.674,8.871-4.236,14.065-4.236
	c14.084,0,25.542,11.459,25.542,25.544c0,6.812-2.651,13.22-7.463,18.042l-0.485,0.487v25.782h3.324V56.88
	c5.132-5.39,7.949-12.427,7.949-19.893C75.358,21.07,62.408,8.119,46.491,8.119z"/>
<path fill="#282D33" stroke="#282D33" stroke-width="0.25" d="M18.544,29.742c0.27,0.153,0.534,0.316,0.813,0.45l-1.441,2.996
	c-0.01-0.006-0.022-0.011-0.032-0.017c-0.166,1.25-0.26,2.521-0.26,3.815c0,0.273,0.006,0.545,0.015,0.816L7.642,55.114h7.537v9.079
	h3.324V51.79h-5.103l7.598-13.16l-0.021-0.484c-0.017-0.386-0.031-0.77-0.031-1.158c0-3.638,0.769-7.097,2.146-10.232
	c-1.093-0.238-2.12-0.702-3.03-1.364C19.447,26.788,18.935,28.24,18.544,29.742z"/>
<path fill="#282D33" stroke="#282D33" stroke-width="0.25" d="M19.356,30.192c-0.278-0.134-0.543-0.297-0.813-0.45
	c-0.289,1.118-0.506,2.264-0.661,3.43c0.01,0.006,0.021,0.011,0.032,0.017L19.356,30.192z"/>
<path fill="#282D33" stroke="#282D33" stroke-width="0.25" d="M38.652,10.674c-0.249-0.423-0.523-0.831-0.809-1.229
	c-1.115,0.351-2.198,0.773-3.25,1.251c0.437,0.527,0.847,1.075,1.191,1.661L38.652,10.674z"/>
<path fill="#282D33" stroke="#282D33" stroke-width="0.25" d="M21.609,22.376c-0.571,0.971-1.088,1.977-1.545,3.015
	c0.91,0.662,1.937,1.126,3.03,1.364c0.476-1.085,1.024-2.133,1.642-3.134C23.568,23.593,22.472,23.153,21.609,22.376z"/>
<path fill="#282D33" stroke="#282D33" stroke-width="0.25" d="M30.564,12.928c-0.944,0.626-1.847,1.308-2.709,2.038
	c0.149,0.118,0.295,0.242,0.432,0.379c0.691,0.69,1.147,1.553,1.331,2.489c0.884-0.779,1.821-1.501,2.809-2.154
	c-0.406-0.993-1.009-1.904-1.79-2.686C30.613,12.971,30.587,12.95,30.564,12.928z"/>
</svg>
