<?xml version="1.0" encoding="utf-8"?>
<!-- Generator: Adobe Illustrator 16.0.0, SVG Export Plug-In . SVG Version: 6.00 Build 0)  -->
<!DOCTYPE svg PUBLIC "-//W3C//DTD SVG 1.1//EN" "http://www.w3.org/Graphics/SVG/1.1/DTD/svg11.dtd">
<svg version="1.1" id="Calque_2" xmlns="http://www.w3.org/2000/svg" xmlns:xlink="http://www.w3.org/1999/xlink" x="0px" y="0px"
	 width="83px" height="83px" viewBox="0 0 83 83" enable-background="new 0 0 83 83" xml:space="preserve">
<g>
	<g>
		<path fill="none" stroke="#282D33" stroke-width="2" d="M17.957,49.874v-9.869c-0.41-2.52-2.203-4.926-4.709-4.927l-1.509,0.001
			c-0.065,0-0.127,0.01-0.189,0.013"/>
		<path fill="none" stroke="#282D33" stroke-width="2" d="M19.111,70.146L5.687,47.617L5.497,29.846
			c0.063-0.003,0.124-0.012,0.189-0.012l1.509-0.002c2.506,0.002,4.299,2.406,4.709,4.928v9.867l3.688,3.896l10.552,10.552l0,0
			l-6.558-6.527c-1.629-1.725-1.082-4.912,0.643-6.543c0,0,0.42-0.344,0.465-0.382l11.676,11.674l1.505,7.517v7.789"/>
		<line fill="none" stroke="#282D33" stroke-width="2" x1="38.677" y1="73.075" x2="15.192" y2="73.075"/>
	</g>
	<g>
		<path fill="none" stroke="#282D33" stroke-width="2" d="M65.359,49.874v-9.869c0.41-2.52,2.203-4.926,4.707-4.927l1.511,0.001
			c0.065,0,0.126,0.01,0.189,0.013"/>
		<path fill="none" stroke="#282D33" stroke-width="2" d="M64.205,70.146l13.426-22.529l0.188-17.771
			c-0.063-0.003-0.124-0.012-0.188-0.012l-1.51-0.002c-2.506,0.002-4.299,2.406-4.709,4.928v9.867l-3.688,3.896L57.173,59.074l0,0
			l6.558-6.527c1.629-1.725,1.082-4.912-0.645-6.543c0,0-0.418-0.344-0.463-0.382L50.949,57.296l-1.508,7.517v7.789"/>
		<line fill="none" stroke="#282D33" stroke-width="2" x1="44.639" y1="73.075" x2="68.124" y2="73.075"/>
	</g>
</g>
<line fill="none" stroke="#282D33" stroke-width="2" x1="33.119" y1="77.359" x2="33.119" y2="80.393"/>
<line fill="none" stroke="#282D33" stroke-width="2" x1="49.994" y1="77.359" x2="49.994" y2="80.393"/>
<polygon fill="none" stroke="#282D33" stroke-width="2" points="59.93,5.805 62.701,12.969 69.865,15.741 62.701,18.512 
	59.93,25.676 57.158,18.512 49.994,15.741 57.158,12.969 "/>
<polygon fill="none" stroke="#282D33" stroke-width="2" points="36.197,33.391 37.464,36.666 40.74,37.934 37.464,39.2 
	36.197,42.476 34.931,39.2 31.654,37.934 34.931,36.666 "/>
<g>
	<line fill="none" stroke="#282D33" stroke-width="2" x1="14.585" y1="22.928" x2="20.082" y2="28.425"/>
	<line fill="none" stroke="#282D33" stroke-width="2" x1="20.082" y1="22.928" x2="14.585" y2="28.425"/>
</g>
<g>
	<line fill="none" stroke="#282D33" stroke-width="2" x1="51.515" y1="32.329" x2="57.012" y2="37.826"/>
	<line fill="none" stroke="#282D33" stroke-width="2" x1="57.012" y1="32.329" x2="51.515" y2="37.826"/>
</g>
</svg>
