<?xml version="1.0" encoding="utf-8"?>
<!-- Generator: Adobe Illustrator 16.0.0, SVG Export Plug-In . SVG Version: 6.00 Build 0)  -->
<!DOCTYPE svg PUBLIC "-//W3C//DTD SVG 1.1//EN" "http://www.w3.org/Graphics/SVG/1.1/DTD/svg11.dtd">
<svg version="1.1" id="Calque_2" xmlns="http://www.w3.org/2000/svg" xmlns:xlink="http://www.w3.org/1999/xlink" x="0px" y="0px"
	 width="83px" height="83px" viewBox="0 0 83 83" enable-background="new 0 0 83 83" xml:space="preserve">
<g>
	<g>
		<polyline fill="none" stroke="#282D33" stroke-width="2" points="27.341,28.119 16.667,17.445 7.917,17.445 7.917,4.609 		"/>
		<path fill="none" stroke="#282D33" stroke-width="2" d="M47.63,53.225L72.115,77.71c0.665,0.665,1.745,0.663,2.407,0l2.407-2.407
			c0.667-0.666,0.667-1.743,0-2.409L52.759,48.723"/>
		<path fill="none" stroke="#282D33" stroke-width="2" d="M40.956,48.957l4.582,4.581c0.664,0.666,1.743,0.664,2.406,0l4.816-4.813
			c0.664-0.667,0.664-1.743,0-2.408l-5.072-5.072"/>
		<path fill="none" stroke="#282D33" stroke-width="2" d="M41.935,35.491l-9.619-9.62c-0.664-0.664-1.741-0.664-2.406,0.001
			l-4.817,4.814c-0.662,0.665-0.663,1.743,0,2.409l9.222,9.22"/>
	</g>
	<g>
		<line fill="none" stroke="#282D33" stroke-width="2" x1="59.624" y1="23.526" x2="53.738" y2="29.411"/>
		<path fill="none" stroke="#282D33" stroke-width="2" d="M13.263,77.952c-0.596,0.642-1.709,0.571-2.475-0.163
			c-1.846-1.771-3.657-3.58-5.428-5.427c-0.734-0.766-0.803-1.878-0.161-2.476c14.692-13.757,29.386-27.515,44.08-41.271
			c0.64-0.598,1.532-0.685,1.999-0.198c1.127,1.176,2.28,2.328,3.453,3.455c0.486,0.465,0.4,1.359-0.195,2
			C40.777,48.565,27.021,63.259,13.263,77.952z"/>
		<line fill="none" stroke="#282D33" stroke-width="2" x1="46.374" y1="32.145" x2="51.984" y2="37.754"/>
		<line fill="none" stroke="#282D33" stroke-width="2" x1="10.853" y1="69.912" x2="16.462" y2="75.52"/>
		<circle fill="none" stroke="#282D33" stroke-width="2" cx="67.334" cy="15.814" r="10.905"/>
	</g>
</g>
</svg>
