<?xml version="1.0" encoding="utf-8"?>
<!-- Generator: Adobe Illustrator 16.0.0, SVG Export Plug-In . SVG Version: 6.00 Build 0)  -->
<!DOCTYPE svg PUBLIC "-//W3C//DTD SVG 1.1//EN" "http://www.w3.org/Graphics/SVG/1.1/DTD/svg11.dtd">
<svg version="1.1" id="Calque_2" xmlns="http://www.w3.org/2000/svg" xmlns:xlink="http://www.w3.org/1999/xlink" x="0px" y="0px"
	 width="83px" height="83px" viewBox="0 0 83 83" enable-background="new 0 0 83 83" xml:space="preserve">
<g>
	<path fill="none" stroke="#282D33" stroke-width="2" d="M50.504,28.415c-2.793-1.623-3.525-1.689-7.434-0.659
		c-0.59,0.153-1.102,0.244-1.57,0.295c-0.469-0.051-0.981-0.142-1.575-0.295c-3.901-1.03-4.633-0.964-7.427,0.659
		c-2.449,1.292-3.857,5.027-3.158,9.225c0.81,4.854,2.682,5.193,2.682,10.449c0,5.229,1.897,7.841,3.422,7.841
		c1.526,0,2.295-1.791,3.965-6.27c1.15-3.072,2.852-3.56,4.182,0c1.674,4.479,2.439,6.27,3.967,6.27
		c1.525,0,3.421-2.612,3.421-7.841c0-5.243,1.862-5.543,2.682-10.449C54.362,33.442,52.951,29.707,50.504,28.415z"/>
	<path fill="none" stroke="#282D33" stroke-width="2" d="M39.42,77.631C26.244,73.785,8.727,66.026,8.727,43.172V13.623L41.5,4.761
		l32.773,8.864v29.547c0,22.854-17.516,30.613-30.692,34.459L41.5,78.239L39.42,77.631z"/>
	<path fill="none" stroke="#282D33" stroke-width="2" d="M26.803,64.252c-7.496-5.06-10.863-11.879-10.863-21.287V18.749"/>
	<path fill="none" stroke="#282D33" stroke-width="2" d="M40.771,11.195l26.579,7.188V43.19c0,18.485-14.021,24.949-26.236,28.514
		l-0.345,0.102l-0.343-0.101"/>
</g>
</svg>
